<svg xmlns="http://www.w3.org/2000/svg" xmlns:xlink="http://www.w3.org/1999/xlink" viewBox="0 0 249.08 249.08"><defs><style>.cls-1{fill:#82e000;}.cls-2{fill:#34a1d9;}.cls-3{fill:#f16300;}.cls-4{fill:#f6b237;}.cls-5{stroke:#fff;stroke-miterlimit:10;stroke-width:3px;fill:url(#linear-gradient);}</style><linearGradient id="linear-gradient" x1="124.54" y1="-15.58" x2="124.54" y2="292.74" gradientUnits="userSpaceOnUse"><stop offset="0" stop-color="#92ed97"/><stop offset="1" stop-color="#018d34"/></linearGradient></defs><g id="Layer_2" data-name="Layer 2"><g id="Layer_1-2" data-name="Layer 1"><polygon points="124.54 97.1 97.32 126.94 124.54 151.98 151.76 123.68 124.54 97.1"/><polygon class="cls-1" points="97.32 175.82 124.54 151.98 155.03 175.82 126.17 239.41 97.32 175.82"/><path class="cls-2" d="M124.54,97.1S89.84,61.43,92,64.48,124.54,8.77,124.54,8.77l27.22,60.48Z"/><polygon class="cls-3" points="230.25 123.68 177.24 97.1 151.76 123.68 178.67 156.47 200.88 138.56 230.25 123.68"/><polygon class="cls-4" points="97.32 123.68 68.34 96.53 16.05 124.17 69.06 151.98 97.32 123.68"/><path class="cls-5" d="M247.58,117.81q-33.6-5.2-58.34-22.57l37.6-37.6a25,25,0,0,0-35.4-35.4L154.92,58.76c-1.79-2.84-3.5-5.75-5.13-8.77A166.27,166.27,0,0,1,132.93,1.5H116.15A166.57,166.57,0,0,1,99.29,50c-1.63,3-3.34,5.93-5.13,8.77L57.64,22.24a25,25,0,0,0-35.4,35.4l37.59,37.6Q35.16,112.57,1.5,117.81v13.45q33.6,5.2,58.33,22.58l-37.59,37.6a25,25,0,0,0,35.4,35.4l36.52-36.52q2.69,4.25,5.13,8.77a166.47,166.47,0,0,1,16.86,48.49h16.78a166.17,166.17,0,0,1,16.86-48.49q2.44-4.53,5.13-8.77l36.52,36.52a25,25,0,0,0,35.4-35.4l-37.6-37.6q24.67-17.33,58.34-22.58ZM200.7,31.5a11.94,11.94,0,0,1,16.88,16.88l-38.7,38.7a125.34,125.34,0,0,1-16.33-17.43ZM153.28,78.91a140.92,140.92,0,0,0,16.43,17.34l-19,19L133.8,98.4Zm-11.86,45.63-16.88,16.88-16.88-16.88,16.88-16.88ZM111.05,55.76a175.62,175.62,0,0,0,13.49-32.95,175.62,175.62,0,0,0,13.49,33c2.17,4,4.63,8.22,7.44,12.45L124.54,89.14,103.61,68.21C106.42,64,108.88,59.8,111.05,55.76ZM95.8,78.91,115.28,98.4,98.4,115.28l-19-19A141,141,0,0,0,95.8,78.91ZM31.49,48.38A11.94,11.94,0,1,1,48.38,31.5L86.53,69.65A125.34,125.34,0,0,1,70.2,87.08Zm-1.82,76.16a140.82,140.82,0,0,0,39.43-20l20,20-20,20A141.07,141.07,0,0,0,29.67,124.54Zm18.71,93A11.94,11.94,0,0,1,31.49,200.7L70.2,162a124.78,124.78,0,0,1,16.33,17.43ZM95.8,170.16a141.68,141.68,0,0,0-16.44-17.33l19-19,16.88,16.88ZM138,193.32a175.62,175.62,0,0,0-13.49,33,175.62,175.62,0,0,0-13.49-33c-2.17-4-4.63-8.22-7.44-12.45l20.93-20.93,20.93,20.93C142.66,185.1,140.2,189.28,138,193.32Zm15.25-23.16L133.8,150.68l16.88-16.88,19,19A141.57,141.57,0,0,0,153.28,170.16Zm64.3,30.54a11.94,11.94,0,0,1-16.88,16.88l-38.15-38.15A124.78,124.78,0,0,1,178.88,162ZM180,144.57l-20-20,20-20a140.74,140.74,0,0,0,39.44,20A141,141,0,0,0,180,144.57Z"/></g></g></svg>