<svg xmlns="http://www.w3.org/2000/svg" viewBox="0 0 224.93 224.32"><defs><style>.cls-1{fill:#aeb5bd;}.cls-2{fill:#e11737;}.cls-3{fill:#5e8156;}.cls-4{fill:#68cbe5;}.cls-5{fill:#ed5d00;}.cls-6{fill:#d5a05a;}.cls-7{fill:#82e000;}.cls-8{fill:#8ec5be;}.cls-9{fill:#479e8f;}.cls-10{fill:#f6b237;}.cls-11{fill:#e98a00;}.cls-12{fill:#d93342;}.cls-13{fill:#eedd0e;}.cls-14{fill:#c5987c;}.cls-15{fill:#43a6d0;}.cls-16{fill:#92ed97;}.cls-17{fill:#813bee;}.cls-18{fill:#1c3f8b;}.cls-19{fill:#eb7c00;}</style></defs><g id="Layer_2" data-name="Layer 2"><g id="Layer_1-2" data-name="Layer 1"><path class="cls-1" d="M112.68,65.19s3.12,41,44,47c-40.93,6-44,47-44,47h-.43s-3.12-41-44-47c40.93-6,44.05-47,44.05-47"/><path class="cls-2" d="M97.9,195.06l13.9-13.69,13.69,13.91c-1.76,2.64-3.45,5.44-5,8.34a126.93,126.93,0,0,0-9,20.7,128.09,128.09,0,0,0-8.66-20.85C101.25,200.55,99.6,197.72,97.9,195.06Z"/><path class="cls-3" d="M125.82,195.23l8.71-17.46L152,186.49c-.81,3.06-1.5,6.26-2.06,9.52a126.78,126.78,0,0,0-1.8,22.5,127.7,127.7,0,0,0-14.95-16.9C130.78,199.34,128.3,197.2,125.82,195.23Z"/><path class="cls-4" d="M152.29,186.33,154.86,167l19.35,2.57c.23,3.16.61,6.41,1.15,9.67A126.57,126.57,0,0,0,181,201.1,128.18,128.18,0,0,0,161.33,190C158.31,188.61,155.28,187.39,152.29,186.33Z"/><path class="cls-5" d="M174.44,169.32l-3.85-19.13,19.13-3.85c1.25,2.91,2.66,5.86,4.23,8.78A127.66,127.66,0,0,0,206.35,174a127.93,127.93,0,0,0-22.19-4.16C180.87,169.52,177.6,169.35,174.44,169.32Z"/><path class="cls-6" d="M189.86,146,180,129.19l16.85-9.85c2.12,2.35,4.41,4.68,6.84,6.93a127,127,0,0,0,17.85,13.81,129.1,129.1,0,0,0-22.33,3.27C196,144.13,192.86,145,189.86,146Z"/><path class="cls-7" d="M196.89,119,182.1,106.28l12.74-14.79c2.77,1.53,5.69,3,8.72,4.33a127.66,127.66,0,0,0,21.37,7.26,129.55,129.55,0,0,0-20.06,10.35C202.09,115.21,199.4,117.09,196.89,119Z"/><path class="cls-8" d="M194.76,91.16l-18.12-7.24,7.24-18.12c3.12.55,6.36,1,9.66,1.26A128,128,0,0,0,216.11,67,127.47,127.47,0,0,0,200.5,83.3C198.44,85.88,196.51,88.53,194.76,91.16Z"/><path class="cls-9" d="M183.7,65.52l-19.49-1,1-19.49c3.13-.49,6.33-1.14,9.54-1.94a127.77,127.77,0,0,0,21.33-7.39,127.27,127.27,0,0,0-9.47,20.48C185.47,59.33,184.51,62.46,183.7,65.52Z"/><path class="cls-10" d="M164.92,44.85l-18.75,5.42-5.41-18.75c2.8-1.49,5.62-3.14,8.39-4.94a127.89,127.89,0,0,0,17.78-13.92,127.65,127.65,0,0,0-2.31,22.46C164.58,38.42,164.68,41.7,164.92,44.85Z"/><path class="cls-11" d="M140.44,31.4l-16,11.21-11.21-16c2.17-2.31,4.3-4.79,6.34-7.4A127.78,127.78,0,0,0,131.89.31a128.08,128.08,0,0,0,5.11,22C138,25.43,139.2,28.49,140.44,31.4Z"/><path class="cls-12" d="M112.92,26.63,101.46,42.42,85.67,31c1.3-2.89,2.51-5.93,3.59-9A127.36,127.36,0,0,0,94.74,0a127,127,0,0,0,12,19.13C108.71,21.76,110.8,24.29,112.92,26.63Z"/><path d="M85.35,31.05,79.63,49.71,61,44c.29-3.16.45-6.42.46-9.73A126.46,126.46,0,0,0,59.5,11.77,127.73,127.73,0,0,0,77,26C79.79,27.82,82.58,29.52,85.35,31.05Z"/><path class="cls-13" d="M60.7,44.19l.65,19.5-19.5.65c-.75-3.08-1.66-6.22-2.73-9.35A126.93,126.93,0,0,0,30,34.34a127.69,127.69,0,0,0,21.19,7.75C54.39,42.94,57.59,43.64,60.7,44.19Z"/><path class="cls-14" d="M41.66,64.62l7,18.23-18.24,7c-1.71-2.67-3.59-5.34-5.62-8A127.07,127.07,0,0,0,9.42,65.27,127.32,127.32,0,0,0,32,65.72C35.28,65.48,38.54,65.11,41.66,64.62Z"/><path class="cls-15" d="M30.28,90.12l12.49,15-15,12.49c-2.48-2-5.12-3.89-7.89-5.71A128.21,128.21,0,0,0,0,101.21,127.74,127.74,0,0,0,21.49,94.3C24.53,93,27.49,91.6,30.28,90.12Z"/><path class="cls-16" d="M27.8,117.94l16.68,10.12L34.35,144.74c-3-1.05-6.11-2-9.32-2.83a126.54,126.54,0,0,0-22.27-3.65,128.53,128.53,0,0,0,18.08-13.51C23.3,122.54,25.64,120.25,27.8,117.94Z"/><path class="cls-17" d="M34.48,145.05l19.07,4.16-4.17,19.07c-3.16,0-6.43.08-9.73.34A127.81,127.81,0,0,0,17.4,172.4a127.64,127.64,0,0,0,12.71-18.64C31.72,150.86,33.19,147.94,34.48,145.05Z"/><path class="cls-18" d="M49.61,168.53,69,166.27l2.26,19.39c-3,1-6.06,2.17-9.1,3.48a128.8,128.8,0,0,0-19.82,10.8,127.25,127.25,0,0,0,6-21.76C48.88,174.92,49.32,171.68,49.61,168.53Z"/><path class="cls-19" d="M71.54,185.82l17.6-8.43L97.56,195c-2.51,1.92-5,4-7.47,6.25A126.77,126.77,0,0,0,74.86,217.9a129.23,129.23,0,0,0-1.42-22.53C72.93,192.11,72.29,188.89,71.54,185.82Z"/></g></g></svg>